<svg width="175" height="49" viewBox="0 0 175 49" fill="none" xmlns="http://www.w3.org/2000/svg">
<g clip-path="url(#clip0_263_534)">
<path d="M10.7725 49L4.08064 47.3079C1.68267 46.7024 0 44.5247 0 42.0268V10.8889C0 4.87604 4.82395 0 10.7725 0H21.5451C33.4444 0 43.0902 9.74991 43.0902 21.7778V24.5C43.0902 35.023 34.6488 43.5556 24.2382 43.5556H16.1588V35.3889C16.1588 33.8862 17.3653 32.6667 18.852 32.6667H24.2382C28.7002 32.6667 32.3176 29.0102 32.3176 24.5V21.7778C32.3176 15.7649 27.4937 10.8889 21.5451 10.8889H14.0603C12.2441 10.8889 10.7725 12.3763 10.7725 14.2122V49Z" fill="white"/>
<path d="M49.082 29.0928V16.8689H52.191V21.4967H56.6831V16.8689H59.7921V29.0928H56.6831V24.1165H52.191V29.0928H49.082Z" fill="white"/>
<path d="M65.148 29.3369C64.4801 29.3369 63.9156 29.2084 63.4546 28.9536C62.9935 28.6988 62.6423 28.3417 62.401 27.8887C62.1597 27.4357 62.0391 26.9348 62.0391 26.386C62.0391 25.467 62.3191 24.7614 62.8772 24.2736C63.4352 23.7836 64.2797 23.5397 65.4087 23.5397H68.0006V23.1564C68.0006 22.5967 67.8713 22.2134 67.6128 22.0043C67.3542 21.7953 66.9944 21.6907 66.5334 21.6907C66.0723 21.6907 65.7728 21.7582 65.566 21.8911C65.3592 22.0261 65.2428 22.2439 65.2213 22.5466H62.5605C62.5949 21.9869 62.7694 21.4838 63.0883 21.0352C63.405 20.5866 63.8596 20.236 64.4521 19.979C65.0446 19.7242 65.7685 19.5957 66.6195 19.5957C67.4706 19.5957 68.1492 19.722 68.7525 19.9703C69.3579 20.2207 69.8319 20.6171 70.1766 21.1572C70.5214 21.6994 70.6959 22.4225 70.6959 23.3306V26.7366C70.6959 27.2266 70.7045 27.6535 70.7217 28.0193C70.739 28.3852 70.7713 28.7445 70.8165 29.093H68.2764C68.2527 28.8948 68.2354 28.7206 68.2247 28.5681C68.2139 28.4179 68.2074 28.2306 68.2074 28.0085C67.9316 28.3809 67.5481 28.6966 67.0591 28.9514C66.57 29.2084 65.9323 29.3347 65.1502 29.3347L65.148 29.3369ZM66.012 27.4161C66.3912 27.4161 66.7316 27.3464 67.0311 27.207C67.3305 27.0677 67.5675 26.8542 67.7399 26.5689C67.9123 26.2837 67.9984 25.9613 67.9984 25.5998V25.2165H65.9258C65.5337 25.2165 65.2428 25.3211 65.0532 25.5301C64.8636 25.7392 64.7688 25.9788 64.7688 26.2466C64.7688 26.5951 64.8636 26.8782 65.0532 27.0938C65.2428 27.3094 65.5638 27.4161 66.012 27.4161Z" fill="white"/>
<path d="M72.7495 29.093V19.8374H75.2035V21.094C75.4448 20.6759 75.8089 20.3209 76.2915 20.0291C76.7741 19.7372 77.4248 19.5935 78.2435 19.5935C79.338 19.5935 80.1632 19.894 80.7234 20.4929C81.2814 21.0918 81.5615 21.952 81.5615 23.0692V29.093H78.9006V23.679C78.9006 23.0736 78.7714 22.6206 78.5128 22.3179C78.2543 22.0152 77.8298 21.8649 77.2438 21.8649C76.8172 21.8649 76.4682 21.9499 76.1989 22.1175C75.9274 22.2874 75.7292 22.5074 75.6021 22.7818C75.475 23.0562 75.4125 23.3545 75.4125 23.6812V29.0952H72.7517L72.7495 29.093Z" fill="white"/>
<path d="M87.2083 29.3369C86.4133 29.3369 85.7217 29.1561 85.1357 28.7946C84.5475 28.4331 84.0929 27.8974 83.7719 27.1874C83.4487 26.4775 83.2871 25.5976 83.2871 24.5501V24.2017C83.2871 23.189 83.4422 22.3419 83.7546 21.6602C84.0649 20.9786 84.5152 20.4646 85.1012 20.114C85.6894 19.7655 86.3961 19.5891 87.2256 19.5891C87.7448 19.5891 88.236 19.7111 88.7035 19.955C89.1711 20.1989 89.5589 20.5495 89.8691 21.0025V16.8647H92.53V29.0886H90.076V27.832C89.8454 28.2044 89.4856 28.5485 88.9966 28.8621C88.5075 29.1757 87.9107 29.3325 87.2083 29.3325V29.3369ZM87.8654 27.0851C88.2339 27.0851 88.57 26.9979 88.8759 26.8237C89.1818 26.6495 89.4232 26.3903 89.602 26.0463C89.7808 25.7022 89.8691 25.2927 89.8691 24.8158V23.9425C89.8691 23.4765 89.7808 23.0867 89.602 22.7731C89.4232 22.4595 89.184 22.2264 88.8845 22.074C88.585 21.9237 88.2446 21.8475 87.8654 21.8475C87.3247 21.8475 86.883 22.0435 86.5447 22.4333C86.2043 22.8231 86.0341 23.4133 86.0341 24.206V24.5545C86.0341 25.3929 86.2086 26.0245 86.562 26.4491C86.9131 26.8738 87.3484 27.0872 87.8654 27.0872V27.0851Z" fill="white"/>
<path d="M96.5028 32.83C96.3304 32.83 96.158 32.8126 95.9857 32.7778V30.5085C96.158 30.5434 96.3304 30.5608 96.5028 30.5608C96.7441 30.5608 96.938 30.515 97.0823 30.4214C97.2267 30.3278 97.3581 30.171 97.4788 29.9488C97.5994 29.7267 97.7287 29.437 97.8666 29.0755L93.9971 19.8374H96.9337L99.2131 26.0005L101.372 19.8374H104.016L100.525 29.093C100.181 29.9662 99.8509 30.6784 99.5406 31.2315C99.2304 31.7847 98.8404 32.1898 98.375 32.4446C97.9075 32.6994 97.2827 32.8278 96.5006 32.8278L96.5028 32.83Z" fill="white"/>
<path d="M110.583 29.0928V16.8689H115.506C116.635 16.8689 117.563 17.0344 118.296 17.3676C119.026 17.6986 119.565 18.1777 119.912 18.8006C120.256 19.4234 120.431 20.1704 120.431 21.0437C120.431 21.917 120.258 22.6509 119.912 23.2781C119.567 23.9075 119.028 24.3866 118.296 24.7198C117.563 25.0508 116.635 25.2185 115.506 25.2185H113.691V29.0949H110.583V29.0928ZM113.691 22.6313H115.161C115.943 22.6313 116.499 22.5006 116.828 22.2393C117.158 21.978 117.322 21.5794 117.322 21.0437C117.322 20.508 117.158 20.1247 116.828 19.8568C116.501 19.5889 115.945 19.4561 115.161 19.4561H113.691V22.6335V22.6313Z" fill="white"/>
<path d="M124.835 29.3369C124.167 29.3369 123.602 29.2084 123.141 28.9536C122.68 28.6988 122.329 28.3417 122.088 27.8887C121.846 27.4357 121.726 26.9348 121.726 26.386C121.726 25.467 122.006 24.7614 122.564 24.2736C123.122 23.7857 123.966 23.5397 125.095 23.5397H127.687V23.1564C127.687 22.5967 127.558 22.2134 127.299 22.0043C127.041 21.7953 126.679 21.6907 126.22 21.6907C125.761 21.6907 125.459 21.7582 125.253 21.8911C125.046 22.0261 124.929 22.2439 124.908 22.5466H122.247C122.281 21.9869 122.456 21.4838 122.775 21.0352C123.092 20.5866 123.546 20.236 124.139 19.979C124.731 19.7242 125.455 19.5957 126.306 19.5957C127.157 19.5957 127.836 19.722 128.439 19.9703C129.044 20.2207 129.518 20.6171 129.865 21.1572C130.21 21.6994 130.385 22.4225 130.385 23.3306V26.7366C130.385 27.2266 130.393 27.6535 130.41 28.0193C130.428 28.3852 130.46 28.7445 130.505 29.093H127.965C127.941 28.8948 127.924 28.7206 127.913 28.5681C127.903 28.4179 127.896 28.2306 127.896 28.0085C127.62 28.3809 127.237 28.6966 126.748 28.9514C126.259 29.2084 125.623 29.3347 124.839 29.3347L124.835 29.3369ZM125.699 27.4161C126.08 27.4161 126.418 27.3464 126.718 27.207C127.017 27.0677 127.252 26.8542 127.426 26.5689C127.599 26.2837 127.685 25.9613 127.685 25.5998V25.2165H125.612C125.22 25.2165 124.929 25.3211 124.74 25.5301C124.55 25.7392 124.455 25.9788 124.455 26.2466C124.455 26.5951 124.55 26.8782 124.74 27.0938C124.929 27.3094 125.25 27.4161 125.699 27.4161Z" fill="white"/>
<path d="M132.436 29.093V19.8374H134.89V21.094C134.982 20.8849 135.137 20.6628 135.355 20.4298C135.575 20.1967 135.84 19.9986 136.15 19.8352C136.46 19.6719 136.807 19.5913 137.186 19.5913C137.382 19.5913 137.537 19.6022 137.654 19.6262C137.768 19.6501 137.871 19.6784 137.964 19.7133V22.0348C137.906 21.9999 137.77 21.9629 137.559 21.9215C137.346 21.8802 137.107 21.8606 136.842 21.8606C136.439 21.8606 136.107 21.939 135.848 22.0958C135.59 22.2526 135.4 22.4703 135.277 22.7513C135.155 23.0322 135.096 23.3458 135.096 23.6942V29.0908H132.436V29.093Z" fill="white"/>
<path d="M139.604 29.0928V16.8689H142.264V23.3826L145.218 19.8372H148.224L145.011 23.7311L148.588 29.0928H145.513L143.217 25.5996L142.266 26.7168V29.0928H139.606H139.604Z" fill="white"/>
<path d="M151.577 18.964C151.081 18.964 150.695 18.8355 150.42 18.5807C150.144 18.3238 150.006 17.9862 150.006 17.5681C150.006 17.1499 150.144 16.8255 150.42 16.5641C150.695 16.3028 151.077 16.1721 151.559 16.1721C152.042 16.1721 152.451 16.3006 152.716 16.5554C152.981 16.8124 153.113 17.1499 153.113 17.5681C153.113 17.9862 152.979 18.3107 152.716 18.572C152.451 18.8334 152.072 18.964 151.577 18.964ZM150.228 29.0929V19.8373H152.889V29.0929H150.228Z" fill="white"/>
<path d="M155.222 29.093V19.8374H157.676V21.094C157.917 20.6759 158.281 20.3209 158.764 20.0291C159.246 19.7372 159.897 19.5935 160.716 19.5935C161.81 19.5935 162.635 19.894 163.196 20.4929C163.754 21.0918 164.034 21.952 164.034 23.0692V29.093H161.373V23.679C161.373 23.0736 161.244 22.6206 160.985 22.3179C160.726 22.0152 160.302 21.8649 159.716 21.8649C159.289 21.8649 158.94 21.9499 158.671 22.1175C158.4 22.2874 158.201 22.5074 158.074 22.7818C157.947 23.0562 157.885 23.3545 157.885 23.6812V29.0952H155.224L155.222 29.093Z" fill="white"/>
<path d="M170.249 32.83C169.258 32.83 168.468 32.7102 167.873 32.4728C167.281 32.2333 166.848 31.8914 166.578 31.4427C166.309 30.9941 166.149 30.4736 166.102 29.8791H168.815C168.873 30.0882 169.002 30.2863 169.202 30.4736C169.403 30.6587 169.752 30.7524 170.247 30.7524C170.939 30.7524 171.458 30.589 171.812 30.2624C172.163 29.9357 172.339 29.4305 172.339 28.7423V27.747C172.029 28.1891 171.639 28.5354 171.174 28.7858C170.706 29.0363 170.209 29.1604 169.679 29.1604C168.884 29.1604 168.192 28.9862 167.606 28.6356C167.018 28.2871 166.563 27.7645 166.242 27.0719C165.919 26.3794 165.757 25.5083 165.757 24.4608V24.1123C165.757 23.1345 165.915 22.307 166.233 21.6318C166.55 20.9567 167.005 20.4471 167.597 20.103C168.19 19.759 168.89 19.5869 169.696 19.5869C170.409 19.5869 171.006 19.7437 171.484 20.0595C171.962 20.3731 172.316 20.7172 172.546 21.0896V19.833H175V28.4766C175 29.9205 174.617 31.005 173.852 31.7324C173.085 32.4598 171.885 32.8234 170.249 32.8234V32.83ZM170.338 26.9108C170.706 26.9108 171.042 26.8258 171.348 26.6582C171.654 26.4905 171.896 26.24 172.074 25.9068C172.253 25.5758 172.342 25.1816 172.342 24.7286V23.8554C172.342 23.4133 172.251 23.043 172.074 22.7469C171.896 22.4507 171.656 22.2264 171.357 22.0739C171.057 21.9237 170.717 21.8474 170.338 21.8474C169.797 21.8474 169.355 22.0347 169.017 22.4071C168.677 22.7795 168.506 23.3501 168.506 24.1189V24.4673C168.506 25.2709 168.681 25.8785 169.034 26.2923C169.388 26.7061 169.821 26.913 170.338 26.913V26.9108Z" fill="white"/>
</g>
<defs>
<clipPath id="clip0_263_534">
<rect width="175" height="49" fill="white"/>
</clipPath>
</defs>
</svg>
